<svg width="28" height="27" fill="none" xmlns="http://www.w3.org/2000/svg"><g clip-path="url(#clip0)" filter="url(#filter0_d)"><path d="M24 3.799a8.549 8.549 0 01-2.363.647 4.077 4.077 0 001.804-2.266 8.192 8.192 0 01-2.6.992 4.099 4.099 0 00-7.093 2.804c0 .325.028.638.096.935-3.409-.166-6.425-1.8-8.451-4.288a4.128 4.128 0 00-.562 2.072c0 1.42.731 2.679 1.821 3.407A4.05 4.05 0 014.8 7.597v.045a4.119 4.119 0 003.285 4.03 4.09 4.09 0 01-1.075.134c-.263 0-.527-.015-.776-.07.531 1.624 2.039 2.818 3.831 2.856a8.238 8.238 0 01-5.084 1.75A7.67 7.67 0 014 16.284a11.543 11.543 0 006.29 1.84c7.545 0 11.67-6.25 11.67-11.668 0-.18-.006-.356-.015-.53A8.179 8.179 0 0024 3.8z" fill="#AFB1B8"/></g><defs><clipPath id="clip0"><path fill="#fff" transform="translate(4)" d="M0 0h20v20H0z"/></clipPath><filter id="filter0_d" x="0" y="0" width="28" height="28" filterUnits="userSpaceOnUse" color-interpolation-filters="sRGB"><feFlood flood-opacity="0" result="BackgroundImageFix"/><feColorMatrix in="SourceAlpha" values="0 0 0 0 0 0 0 0 0 0 0 0 0 0 0 0 0 0 127 0"/><feOffset dy="4"/><feGaussianBlur stdDeviation="2"/><feColorMatrix values="0 0 0 0 0 0 0 0 0 0 0 0 0 0 0 0 0 0 0.25 0"/><feBlend in2="BackgroundImageFix" result="effect1_dropShadow"/><feBlend in="SourceGraphic" in2="effect1_dropShadow" result="shape"/></filter></defs></svg>